<svg width="113" height="113" viewBox="0 0 113 113" fill="none" xmlns="http://www.w3.org/2000/svg">
<path fill-rule="evenodd" clip-rule="evenodd" d="M52.0366 0.218091C33.2049 1.74903 16.4238 12.5092 7.12911 29.0124C-0.677802 42.8742 -2.15929 59.8481 3.11205 75.04C5.90807 83.0982 10.0367 89.7453 16.1166 95.9781C33.0936 113.382 59.2855 117.947 81.1893 107.319C93.0085 101.584 102.829 91.4701 108.063 79.6434C116.68 60.1726 113.891 38.1381 100.681 21.3238C97.5799 17.3762 91.3986 11.7922 87.0922 9.04765C82.2887 5.98673 76.3408 3.36856 71.0717 1.99604C67.0686 0.953105 64.408 0.507956 60.3488 0.201479C56.7403 -0.0710513 55.5619 -0.0686437 52.0366 0.218091ZM79.4048 39.2759C80.9434 40.0875 81.8562 41.499 81.9839 43.2632C82.1789 45.9555 82.6969 45.3313 68.2096 59.8594C60.9046 67.185 54.4941 73.4296 53.9641 73.7358C52.6756 74.4807 51.4695 74.6618 50.0658 74.3211C48.9797 74.0575 48.3465 73.4852 40.2729 65.4658C35.5256 60.7504 31.4851 56.5963 31.2943 56.2344C30.7799 55.2599 30.6279 53.6526 30.9404 52.4931C31.7251 49.581 35.3087 47.9726 38.0467 49.3034C38.6545 49.5986 41.3576 52.1116 45.1674 55.9231L51.3088 62.0669L62.635 50.7633C69.7482 43.6643 74.2751 39.3248 74.8047 39.097C76.1127 38.5346 78.15 38.6138 79.4048 39.2759Z" fill="#7AD978"/>
</svg>
