<svg width="34" height="163" viewBox="0 0 34 163" fill="none" xmlns="http://www.w3.org/2000/svg">
<path fill-rule="evenodd" clip-rule="evenodd" d="M33.1719 89.6166C33.1719 91.7051 32.3937 94.1221 31.6741 95.4933C29.2048 100.199 23.9453 102.99 18.7959 103.238C16.5027 103.348 16.1843 103.496 13.4742 103.065C12.191 102.861 10.1021 102.317 9.00523 101.784C4.06008 99.3833 0.549789 95.5112 0.549789 88.8667V60.4942H10.7988V87.4918C10.7988 90.9708 12.4144 93.2413 15.9234 93.2413C17.8323 93.2413 19.0454 93.3816 20.7594 92.4527C22.2752 91.6311 22.9228 89.8617 22.9228 88.1167V60.4941H33.1718V89.6166L33.1719 89.6166Z" fill="#97A8BA"/>
<path fill-rule="evenodd" clip-rule="evenodd" d="M33.1717 149.611C33.1717 152.19 31.8758 155.345 30.4243 157.237C29.8698 157.96 29.4596 158.464 28.7254 159.038C27.2869 160.162 26.3273 160.995 24.4058 161.718C21.789 162.703 20.3511 162.937 18.4905 162.984H15.1691C11.7084 162.983 7.12288 161.142 4.83035 158.829C4.51032 158.506 4.27172 158.277 3.95324 157.956C1.79584 155.779 0.549789 151.913 0.549789 148.611V120.238H10.7988V147.236C10.7988 151.238 12.7309 153.11 16.7983 153.11C20.1579 153.11 22.9228 151.764 22.9228 148.111V120.238H33.1719V149.611L33.1717 149.611Z" fill="#97A8BA"/>
<path fill-rule="evenodd" clip-rule="evenodd" d="M2.17468 12.7488C2.17468 19.8652 6.7766 23.177 12.7516 25.1699C16.0082 26.2561 24.8904 27.6915 22.547 31.8712C21.2977 34.0992 16.3571 33.677 14.2184 32.9522C13.2541 32.6254 12.7613 32.2554 12.0471 31.7489C11.7281 31.5227 11.4797 31.2816 11.2105 30.9605C10.9494 30.649 10.655 30.2971 10.4455 29.9757C9.68994 28.8157 9.79893 28.7895 9.29901 27.7476C8.81277 27.7881 7.54737 28.6094 7.07276 28.8961L0.424805 32.7471C0.716001 33.9972 1.96398 36.0829 2.70867 37.0877C5.5698 40.9482 10.8711 43.4962 16.2984 43.4962C20.1275 43.4962 23.4182 43.3111 26.7921 41.366C30.5351 39.2083 33.1718 35.7411 33.1718 30.3723C33.1718 27.9656 32.2891 24.7419 30.7036 23.0914C30.4055 22.781 30.2849 22.5304 30.0118 22.2833L28.4956 21.0498C22.6634 16.8287 10.7472 16.7225 12.6554 11.7315C13.5236 9.46051 18.573 9.09853 21.2206 11.5763C21.2394 11.5939 21.2669 11.6185 21.2855 11.6364L21.4102 11.7615C22.1301 12.5136 23.0583 13.7214 23.2977 14.7487C23.8238 14.7049 24.0238 14.4804 24.4155 14.2417L27.6475 12.349C28.3824 11.9083 29.0611 11.5352 29.7909 11.1177C30.2858 10.8345 31.5227 9.99621 32.0469 9.8741C31.9733 8.9886 30.3919 6.83859 29.8868 6.15972C27.3814 2.79294 22.4962 0.00154364 18.3017 0H17.1947C13.7349 0.00705663 11.1483 0.148961 7.79722 2.37279C5.77031 3.7178 4.41726 5.3873 3.33974 7.53946C2.69533 8.82652 2.17468 10.8763 2.17468 12.7488Z" fill="#97A8BA"/>
</svg>
