<svg width="45" height="221" viewBox="0 0 45 221" fill="none" xmlns="http://www.w3.org/2000/svg">
<path fill-rule="evenodd" clip-rule="evenodd" d="M45 121.516C45 124.348 43.9449 127.625 42.9691 129.484C39.6208 135.865 32.4893 139.65 25.5068 139.986C22.3974 140.136 21.9657 140.336 18.2909 139.751C16.551 139.474 13.7185 138.737 12.2312 138.015C5.52586 134.759 0.766083 129.509 0.766083 120.499V82.0274H14.6633V118.635C14.6633 123.352 16.8539 126.431 21.6119 126.431C24.2003 126.431 25.8453 126.621 28.1693 125.362C30.2246 124.248 31.1027 121.848 31.1027 119.482V82.0273H44.9999V121.516L45 121.516Z" fill="white"/>
<path fill-rule="evenodd" clip-rule="evenodd" d="M44.9995 202.866C44.9995 206.363 43.2423 210.641 41.2741 213.207C40.5223 214.187 39.9662 214.871 38.9706 215.649C37.0201 217.173 35.7188 218.302 33.1134 219.282C29.5652 220.618 27.6155 220.936 25.0925 221H20.589C15.8964 220.998 9.67862 218.502 6.57007 215.365C6.13613 214.927 5.81259 214.617 5.38074 214.182C2.45542 211.23 0.765839 205.988 0.765839 201.51V163.038H14.663V199.645C14.663 205.071 17.2828 207.611 22.7981 207.611C27.3535 207.611 31.1026 205.786 31.1026 200.832V163.038H44.9998V202.866L44.9995 202.866Z" fill="white"/>
<path fill-rule="evenodd" clip-rule="evenodd" d="M2.96943 17.2868C2.96943 26.9362 9.20939 31.4269 17.3112 34.1291C21.727 35.602 33.7708 37.5483 30.5932 43.2158C28.8993 46.2369 22.2 45.6643 19.3001 44.6815C17.9926 44.2384 17.3244 43.7367 16.3559 43.0499C15.9234 42.7432 15.5865 42.4164 15.2216 41.9809C14.8675 41.5585 14.4683 41.0814 14.1843 40.6455C13.1597 39.0727 13.3075 39.0371 12.6297 37.6244C11.9703 37.6792 10.2545 38.7929 9.61097 39.1816L0.59668 44.4035C0.991527 46.0985 2.68372 48.9266 3.69349 50.2891C7.57304 55.5238 14.7613 58.9786 22.1204 58.9786C27.3126 58.9786 31.7746 58.7276 36.3494 56.0903C41.4247 53.1645 45 48.4632 45 41.1834C45 37.92 43.803 33.5487 41.6532 31.3108C41.249 30.8899 41.0855 30.5501 40.7151 30.2151L38.6593 28.5425C30.7512 22.8189 14.5933 22.6749 17.1807 15.9073C18.358 12.828 25.2047 12.3372 28.7947 15.6969C28.8202 15.7207 28.8576 15.7541 28.8827 15.7784L29.0519 15.948C30.028 16.9678 31.2866 18.6055 31.6111 19.9985C32.3246 19.9391 32.5958 19.6347 33.1269 19.3111L37.5092 16.7446C38.5058 16.147 39.4261 15.6412 40.4156 15.0751C41.0867 14.6911 42.7638 13.5544 43.4747 13.3888C43.3748 12.1881 41.2306 9.27279 40.5457 8.35227C37.1484 3.78708 30.5244 0.0020931 24.8368 0H23.3358C18.6445 0.00956844 15.1372 0.201984 10.5933 3.21739C7.84492 5.04115 6.01025 7.3049 4.54919 10.2231C3.6754 11.9683 2.96943 14.7477 2.96943 17.2868Z" fill="white"/>
</svg>
