<svg width="71" height="87" viewBox="0 0 71 87" fill="none" xmlns="http://www.w3.org/2000/svg">
<path d="M34 38C28.9627 38.006 24.1334 40.0361 20.5715 43.6448C17.0096 47.2536 15.006 52.1464 15 57.25C14.994 61.4206 16.3386 65.4781 18.8277 68.8C18.8277 68.8 19.3458 69.4912 19.4305 69.591L34 87L48.5764 69.5822C48.6524 69.4895 49.1723 68.8 49.1723 68.8L49.1741 68.7947C51.6619 65.4743 53.0059 61.4187 53 57.25C52.994 52.1464 50.9903 47.2536 47.4284 43.6448C43.8665 40.0361 39.0373 38.006 34 38ZM34 64.25C32.6335 64.25 31.2977 63.8395 30.1615 63.0703C29.0253 62.3011 28.1398 61.2079 27.6168 59.9288C27.0939 58.6497 26.9571 57.2422 27.2237 55.8844C27.4903 54.5265 28.1483 53.2792 29.1145 52.3003C30.0808 51.3213 31.3119 50.6546 32.6521 50.3845C33.9923 50.1144 35.3815 50.253 36.644 50.7828C37.9065 51.3127 38.9855 52.2099 39.7447 53.361C40.5039 54.5122 40.9091 55.8655 40.9091 57.25C40.9068 59.1058 40.1781 60.8849 38.8829 62.1972C37.5877 63.5094 35.8317 64.2477 34 64.25Z" fill="#035D9F"/>
<path d="M10.016 30.384C8.24533 30.384 6.528 30.1493 4.864 29.68C3.22133 29.1893 1.89867 28.56 0.896 27.792L2.656 23.888C3.616 24.592 4.75733 25.1573 6.08 25.584C7.40267 26.0107 8.72533 26.224 10.048 26.224C11.52 26.224 12.608 26.0107 13.312 25.584C14.016 25.136 14.368 24.5493 14.368 23.824C14.368 23.2907 14.1547 22.8533 13.728 22.512C13.3227 22.1493 12.7893 21.8613 12.128 21.648C11.488 21.4347 10.6133 21.2 9.504 20.944C7.79733 20.5387 6.4 20.1333 5.312 19.728C4.224 19.3227 3.28533 18.672 2.496 17.776C1.728 16.88 1.344 15.6853 1.344 14.192C1.344 12.8907 1.696 11.7173 2.4 10.672C3.104 9.60533 4.16 8.76267 5.568 8.144C6.99733 7.52533 8.736 7.216 10.784 7.216C12.2133 7.216 13.6107 7.38667 14.976 7.728C16.3413 8.06933 17.536 8.56 18.56 9.2L16.96 13.136C14.8907 11.9627 12.8213 11.376 10.752 11.376C9.30133 11.376 8.224 11.6107 7.52 12.08C6.83733 12.5493 6.496 13.168 6.496 13.936C6.496 14.704 6.89067 15.28 7.68 15.664C8.49067 16.0267 9.71733 16.3893 11.36 16.752C13.0667 17.1573 14.464 17.5627 15.552 17.968C16.64 18.3733 17.568 19.0133 18.336 19.888C19.1253 20.7627 19.52 21.9467 19.52 23.44C19.52 24.72 19.1573 25.8933 18.432 26.96C17.728 28.0053 16.6613 28.8373 15.232 29.456C13.8027 30.0747 12.064 30.384 10.016 30.384ZM33.0143 30.384C29.8143 30.384 27.3183 29.4987 25.5263 27.728C23.7556 25.9573 22.8703 23.4293 22.8703 20.144V7.6H28.0543V19.952C28.0543 23.9627 29.7183 25.968 33.0463 25.968C34.6676 25.968 35.9049 25.488 36.7583 24.528C37.6116 23.5467 38.0382 22.0213 38.0382 19.952V7.6H43.1583V20.144C43.1583 23.4293 42.2623 25.9573 40.4703 27.728C38.6996 29.4987 36.2143 30.384 33.0143 30.384ZM58.233 30.384C55.033 30.384 52.537 29.4987 50.745 27.728C48.9743 25.9573 48.089 23.4293 48.089 20.144V7.6H53.273V19.952C53.273 23.9627 54.937 25.968 58.265 25.968C59.8863 25.968 61.1237 25.488 61.977 24.528C62.8303 23.5467 63.257 22.0213 63.257 19.952V7.6H68.377V20.144C68.377 23.4293 67.481 25.9573 65.689 27.728C63.9183 29.4987 61.433 30.384 58.233 30.384Z" fill="#035D9F"/>
</svg>
